# xmcd
#
# Track frame offsets: 
#        150
#        8752
#        21466
#        34917
#        47303
#        59619
#        76927
#        91592
#        105471
#        125445
#        137228
#        163622
#        208949
#        232341
#        246131
#        256350
#        268718
#        283408
#
# Disc length: 4080 seconds
#
# Revision: 0
# Processed by: cddbd v1.5.2PL0 Copyright (c) Steve Scherf et al.
# Submitted via: ExactAudioCopy v1.0b3
#
DISCID=020fee12
DTITLE=Carlo Aonzo - Mandolin Images
DYEAR=2011
DGENRE=Instrumental
TTITLE0=Sébastian Paci - Suite Campensina - Danza de la Siega
TTITLE1=Sébastian Paci - Suite Campensina - Lamento del Campesino
TTITLE2=Sébastian Paci - Suite Campensina - Danza de las Muchachas
TTITLE3=Claudio Mandocino - Preludio E Fuga - Preludio
TTITLE4=Claudio Mandocino - Preludio E Fuga - Fuga
TTITLE5=Victor Kioulaphides - Broadway '79
TTITLE6=Dimitri Nicolau - Simple Suite - 'Pocket' Ouverture
TTITLE7=Dimitri Nicolau - Simple Suite - Tabarin
TTITLE8=Dimitri Nicolau - Simple Suite - '...im Traume'
TTITLE9=Dimitri Nicolau - Simple Suite - Summer Dance
TTITLE10=Elizabeth J. Start - Concerto for Mandolin and Orchestra - St
TTITLE10=ately
TTITLE11=Elizabeth J. Start - Concerto for Mandolin and Orchestra - Wa
TTITLE11=ltz Variations and Finale
TTITLE12=Katsumi Nagaoka - Yume
TTITLE13=Stefano Squarzina - C.P.O. Rhapsody - Preludio Metropolitano
TTITLE14=Stefano Squarzina - C.P.O. Rhapsody - Prima 'Chanson'
TTITLE15=Stefano Squarzina - C.P.O. Rhapsody - Interludio
TTITLE16=Stefano Squarzina - C.P.O. Rhapsody - Seconda 'Chanson'
TTITLE17=Stefano Squarzina - C.P.O. Rhapsody - Samba di Mezzanotte
EXTD=
EXTT0=
EXTT1=
EXTT2=
EXTT3=
EXTT4=
EXTT5=
EXTT6=
EXTT7=
EXTT8=
EXTT9=
EXTT10=
EXTT11=
EXTT12=
EXTT13=
EXTT14=
EXTT15=
EXTT16=
EXTT17=
PLAYORDER=
